<?xml version="1.0" standalone="no"?>
<!DOCTYPE svg PUBLIC "-//W3C//DTD SVG 20010904//EN"
 "http://www.w3.org/TR/2001/REC-SVG-20010904/DTD/svg10.dtd">
<svg version="1.0" xmlns="http://www.w3.org/2000/svg"
 width="626.000000pt" height="626.000000pt" viewBox="0 0 626.000000 626.000000"
 preserveAspectRatio="xMidYMid meet">

<g transform="translate(0.000000,626.000000) scale(0.100000,-0.100000)"
fill="#000000" stroke="none">
<path d="M0 4830 l0 -530 3130 0 3130 0 0 530 0 530 -3130 0 -3130 0 0 -530z"/>
<path d="M0 3140 l0 -530 3130 0 3130 0 0 530 0 530 -3130 0 -3130 0 0 -530z"/>
<path d="M0 1430 l0 -530 3130 0 3130 0 0 530 0 530 -3130 0 -3130 0 0 -530z"/>
</g>
</svg>
